# xmcd
#
# Track frame offsets:
#	150
#	13807
#	29587
#	42645
#	64572
#	80145
#	91745
#	107522
#	120060
#	133672
#
# Disc length: 2012 seconds
#
# Revision: 5
# Processed by: cddbd v1.5.1PL2 Copyright (c) Steve Scherf et al.
# Submitted via: dBpowerAMP V4.0
#
DISCID=7b07da0a
DTITLE=Various Artist - Floor Fillin' Two Steppin' Honky Tonk Hits Volum
DYEAR=1994
DGENRE=Country
TTITLE0=Pirates of the Mississippi - Honky Tonk Blues
TTITLE1=Tanya Tucker - Down to My Last Teardrop
TTITLE2=Charlie Floyd - I've Fallen in Love (and I Can't Get Up)
TTITLE3=Charlie Daniels - Tennessee Two-Step
TTITLE4=Richy Lynn Gregg - Bring on the Neon
TTITLE5=Chris Ledoux and Garth Brooks - Watcha Gonna Do With A Cownboy
TTITLE6=Billy Dean - Hammer Down
TTITLE7=John Anderson - Tryin' To Make A Living On The Road
TTITLE8=Highway 101 - Home On The Range
TTITLE9=Dan Seals - Love on Arrival
EXTD=
EXTT0=
EXTT1=
EXTT2=
EXTT3=
EXTT4=
EXTT5=
EXTT6=
EXTT7=
EXTT8=
EXTT9=
PLAYORDER=
